<?xml version="1.0" ?><svg id="Layer_1" style="enable-background:new 0 0 91 91;" version="1.1" viewBox="0 0 91 91" xml:space="preserve" xmlns="http://www.w3.org/2000/svg" xmlns:xlink="http://www.w3.org/1999/xlink"><g><path d="M35.4,36.4c-3.9-0.7-7.5-1.8-10.9-3.3l-1.8-0.9c-2.7,4-4.5,8.8-4.8,13.9h16.3C34.3,42.8,34.7,39.5,35.4,36.4z"/><path d="M24.8,29.5l1.1,0.5c3.1,1.4,6.6,2.4,10.3,3.1c1.2-4.3,3-8.3,5.3-11.6l0.8-1.2C35.4,21.1,29.2,24.5,24.8,29.5z"/><path d="M24.6,62.7c3.3-1.5,7-2.6,10.8-3.2c-0.7-3.2-1.1-6.5-1.2-9.9H17.9c0.3,5.2,2.1,10,4.9,14L24.6,62.7z"/><path d="M47.7,20.2l0.9,1.4c2.3,3.3,4,7.3,5.3,11.6c4.1-0.7,8-1.9,11.4-3.5l0.8-0.4C61.5,24.1,55,20.8,47.7,20.2z"/><path d="M24.9,66.3c4.4,4.9,10.5,8.3,17.4,9.1L42,74.9c-2.5-3.4-4.4-7.6-5.8-12.2c-3.6,0.6-7.1,1.6-10.2,3L24.9,66.3z"/><path d="M45,73.3l0.4-0.5c2.2-3,3.9-6.6,5.1-10.7c-1.7-0.2-3.5-0.3-5.2-0.3c-1.9,0-3.8,0.1-5.6,0.3c1.2,4,2.9,7.7,5.1,10.6L45,73.3   z"/><path d="M45,22.2l-0.8,1.2c-2,2.9-3.5,6.3-4.7,10.2c1.9,0.2,3.8,0.3,5.7,0.3c1.8,0,3.6-0.1,5.3-0.3c-1.1-3.8-2.7-7.3-4.7-10.2   L45,22.2z"/><path d="M66.1,66.7l-0.9-0.6c-3.4-1.6-7.3-2.8-11.4-3.5c-1.3,4.6-3.3,8.8-5.8,12.2l-0.5,0.6C54.9,75,61.6,71.8,66.1,66.7z"/><path d="M62.1,39.1c1.9,1.9,3.1,4.4,3.4,7h7.8c-0.3-5.3-2.1-10.1-5-14.2l-1.5,0.8c-3.1,1.5-6.5,2.6-10.1,3.3   C58.8,36.6,60.6,37.6,62.1,39.1z"/><path d="M45.2,58.6c2.1,0,4.1,0.1,6.1,0.3c0,0,0,0,0,0c-2.2-0.5-4.2-1.5-5.8-3.2c-1.7-1.7-2.8-3.8-3.2-6.2h-4.7   c0.1,3.3,0.5,6.4,1.1,9.4C40.9,58.7,43,58.6,45.2,58.6z"/><path d="M48,37.2c-0.9,0-1.9,0.1-2.8,0.1c-2.2,0-4.4-0.1-6.5-0.4c-0.6,3-1,6.1-1.1,9.3h4.6c0.3-2.7,1.4-5.1,3.4-7   C46.3,38.3,47.1,37.7,48,37.2z"/><path d="M66.9,63.2l0.8,0.5l-6.9-6.9c-1.8,1.3-3.9,2.1-6.1,2.3c0,0.1,0,0.2-0.1,0.3c4.3,0.7,8.4,2,12.1,3.7L66.9,63.2z"/><path d="M65.4,49.5c-0.3,1.8-1.1,3.4-2.1,4.9l6.7,6.7c1.6-3.1,3.1-6.8,3.4-11.6H65.4z"/><path d="M75.1,66.3l-5.2-5.2c-0.2,0.4-0.4,0.7-0.6,1.1c-0.3,0.6-0.7,1.2-1.1,1.8l-0.5-0.3l5,5L75.1,66.3z"/></g></svg>