<?xml version="1.0" ?><!DOCTYPE svg  PUBLIC '-//W3C//DTD SVG 1.1//EN'  'http://www.w3.org/Graphics/SVG/1.1/DTD/svg11.dtd'><svg enable-background="new 0 0 512 512" height="512px" id="Sender" version="1.1" viewBox="0 0 512 512" width="512px" xml:space="preserve" xmlns="http://www.w3.org/2000/svg" xmlns:xlink="http://www.w3.org/1999/xlink"><g><g><g><polygon points="473.289,223.377 466.219,230.448 476.894,241.122 424.965,241.122 424.965,251.122 476.894,251.122      466.338,261.679 473.407,268.75 496.035,246.122    "/><polygon points="430.389,219.469 437.459,226.54 460.086,203.913 437.342,181.167 430.271,188.238 440.885,198.854      394.465,198.854 394.465,208.854 441.003,208.854    "/><polygon points="430.271,272.776 440.885,283.392 394.465,283.392 394.465,293.392 441.003,293.392 430.389,304.007      437.459,311.078 460.086,288.45 437.342,265.705    "/><rect height="10" width="14.5" x="396.965" y="241.122"/></g></g><g><rect height="10" transform="matrix(-0.583 -0.8124 0.8124 -0.583 207.5317 778.1471)" width="12.277" x="297.306" y="330.819"/><path d="M87.207,340.147l11.791-0.009l29.979,17.562c7.191,4.214,17.027,8.792,26.988,12.561l3.539-9.353    c-9.32-3.526-18.844-7.951-25.473-11.836l-32.324-18.936l-14.498,0.011l-0.002-117.81l13.024-0.007l29.532-19.045    c1.547-0.995,3.1-2.004,4.663-3.018c12.853-8.341,26.144-16.966,39.856-21.155c5.738-1.746,11.051-2.595,16.246-2.595h52.585    c1.167,0,2.298,0.166,3.407,0.505c5.508,1.632,9.363,7.099,9.376,13.284c0,1.731-0.304,3.45-0.88,5.047    c-0.725,1.935-1.812,3.637-3.275,5.109c-0.121,0.125-0.246,0.245-0.375,0.363l-0.275,0.234c-1.35,1.179-2.879,2.021-4.617,2.526    c-1.064,0.327-2.195,0.492-3.36,0.492l-41.155,0.008l-1.037,3.623c-0.063,0.214-6.371,21.592-27.648,40.027l-0.115,0.099    c-0.677,0.574-1.363,1.155-2.063,1.728l-1.836,1.501v168.435h188.813v-83.245h0.416c13.541,0,24.557-10.669,24.557-23.783    c0-6.381-2.613-12.179-6.852-16.454c7.875-3.966,13.27-11.938,13.27-21.111c0-6.896-3.051-13.114-7.909-17.462    c6.879-4.219,11.46-11.65,11.46-20.103c0-10.124-6.569-18.785-15.793-22.211c3.629-4.146,5.824-9.505,5.824-15.354    c0-13.114-11.016-23.783-24.557-23.783h-0.416v-63.49h-189.16v57.505h1.039c-14.517,4.722-27.959,13.43-40.967,21.872    c-1.553,1.007-3.098,2.009-4.637,3l-27.064,17.454l-10.076,0.005v-13.168H15.965v10h61.242v145.774H15.965v10h71.242V340.147z     M190.523,156.518c-3.813,0-7.656,0.379-11.611,1.145v-34.034l22.561,32.881h-1.988L190.523,156.518z M257.523,198.717    l0.371-0.309c0.352-0.319,0.703-0.649,0.984-0.941c2.422-2.435,4.273-5.328,5.523-8.66c0.992-2.749,1.495-5.609,1.495-8.51    c-0.021-10.583-6.821-19.984-16.491-22.849c-2.014-0.617-4.131-0.931-6.292-0.931l-29.513-0.006l-30.195-44.01h159.925    l-80.703,112.467l-15.296-21.312c0.682-0.135,1.354-0.29,2.002-0.489C252.348,202.294,255.104,200.797,257.523,198.717z     M179.625,245.462l0.156-0.133c18.384-15.929,26.638-33.74,29.506-41.249l26.037-0.001l21.149,29.467l-5.31,7.4    c-6.566,9.149-6.566,21.444,0,30.595l5.327,7.425l-77.231,109.74V245.771C179.383,245.668,179.504,245.565,179.625,245.462z     M358.488,316.253h-21.572c-7.6,0-13.781-6.184-13.781-13.783c0-7.599,6.182-13.782,13.781-13.782h6.418h15.154    c8.026,0,14.557,6.184,14.557,13.782C373.045,310.069,366.515,316.253,358.488,316.253z M364.904,278.688h-6.416h-15.154    c-7.6,0-13.783-6.183-13.783-13.783c0-7.599,6.184-13.782,13.783-13.782h3.551h18.02c8.027,0,14.559,6.184,14.559,13.782    C379.463,272.505,372.932,278.688,364.904,278.688z M383.014,227.34c0,7.6-6.531,13.782-14.559,13.782h-3.551h-18.02    c-7.6,0-13.783-6.183-13.783-13.782s6.184-13.782,13.783-13.782h11.604h9.967C376.482,213.558,383.014,219.74,383.014,227.34z     M373.045,189.775c0,7.6-6.53,13.783-14.557,13.783h-11.604h-9.969c-7.6,0-13.781-6.183-13.781-13.783    c0-7.6,6.182-13.783,13.781-13.783h21.572C366.515,175.992,373.045,182.175,373.045,189.775z M336.916,165.992    c-13.113,0-23.781,10.669-23.781,23.783c0,10.212,6.472,18.941,15.528,22.304c-3.468,4.133-5.562,9.456-5.562,15.261    c0,6.874,2.936,13.073,7.614,17.419c-6.7,4.211-11.165,11.665-11.165,20.145c0,6.348,2.504,12.117,6.569,16.387    c-7.7,3.94-12.985,11.951-12.985,21.179c0,13.114,10.668,23.783,23.781,23.783h11.156v63.18l-30.43-42.403l-8.125,5.829    l33.469,46.64H183.893l78.772-111.931l26.237,36.563l8.125-5.83l-37.738-52.591c-4.064-5.663-4.064-13.272,0-18.935    l88.783-123.726v42.943H336.916z"/><rect height="12.374" width="10" x="55.982" y="210.979"/><rect height="100.652" width="10" x="55.982" y="234.854"/></g></g></svg>